<svg id="Layer_1" data-name="Layer 1" xmlns="http://www.w3.org/2000/svg" xmlns:xlink="http://www.w3.org/1999/xlink" viewBox="0 0 2000 2000"><defs><style>.cls-1{fill:none;}.cls-2{clip-path:url(#clip-path);}.cls-3{fill:#282e3f;}.cls-4{fill:#fefefe;}.cls-5{fill:#525764;}.cls-6{fill:#d2d4d7;}.cls-7{fill:#c9cacf;}.cls-8{fill:#f6f6f7;}</style><clipPath id="clip-path"><circle class="cls-1" cx="1000.5" cy="1000.5" r="990.5"/></clipPath></defs><title>Artboard Logo</title><g class="cls-2"><path class="cls-3" d="M1078.43,1996.08h-149c-30.83-4.36-62.2-2.63-92.9-7.21-89-13.28-173.87-40.52-255.47-78.1q-184.63-85-321.76-235.19c-57.88-63.27-108-132.35-146.48-209.43-3.2-6.41-6.72-12.7-8.27-19.83-1.43-13.61,3.59-25.78,9.36-37.47,34-68.84,58.34-141.16,77.73-215.22,11.25-43,19.13-86.68,28.18-130.14,2-9.71,2.11-24,15.18-23.62,11.71.33,11.89,14.1,13.49,23.4,12,70.26,28,139.6,49.15,207.66,15.93,51.28,35.26,101.19,65.91,145.89,3.32,4.84,6.7,9.62,10.47,14.17,47.91,57.85,98.94,52.68,161.23-.16,41.4-35.13,59.63-84.94,72.93-136.15,13.5-51.93,17.2-105.59,26.93-158.22,23-124.55,42.9-249.71,74.66-372.5,2.8-10.81,5.83-21.49,12.16-30.83,3.76-5.55,8.5-10.72,15.91-9.4,7.77,1.38,9.75,8.4,10.51,14.91,4.9,42.12,11.32,84.22,12.23,126.59,1.83,85.38,6.23,170.67,9.39,256a1987,1987,0,0,1-12.39,306.55c-4.29,36.43.29,70,24.49,95.48,28,29.51,66.66,37.28,106.85,32.2,32.14-4.06,58.62-19.21,82.39-41.54,46.9-44.06,78.72-98.94,113.15-152,75.7-116.78,129.28-244.72,186.72-370.72,17.89-39.24,35.88-78.53,58.58-115.25,18.45-29.84,39.67-30,58.5-.46,19.72,31,33.72,64.84,45.36,99.67,16.35,48.92,33.13,97.34,59.83,142.31,24.18,40.74,73.6,60.09,125.31,54,54.89-6.44,89.53-42.27,118.12-83C1798.3,1001,1845.06,905.24,1886.69,807c14-33.09,27.88-66.24,40.14-100a84.3,84.3,0,0,1,5.46-12.58c9-16.1,15.62-16.26,25.83-.81A52.35,52.35,0,0,1,1963,702c14.28,49.14,29,98.15,34,149.43.82,8.44.72,16.81,1,25.23.52,55.55,3.65,111,5.89,166.46v19.61c-5.76,28.8-3.16,58.21-6.36,87.23-7.94,71.93-28.52,140.56-54,207.84-53.32,141-135.07,263.81-244.31,367-148.48,140.28-323.29,230.47-525.94,263.65C1142,1993.61,1109.92,1991.58,1078.43,1996.08Z"/><path class="cls-3" d="M945.1,3.92h98c23.56,5,47.47,3.69,71.28,4,119,8.81,230.26,45.55,336.52,97.65,99.32,48.7,187.81,113.5,266.23,191.43,31.91,31.71,62,65.41,88,102.39,6.43,13.82,4.9,27.77,1.56,42.12-26.68,114.64-60,227.26-103,336.87-16.27,41.44-35.6,81.4-63.23,116.79a135.07,135.07,0,0,1-8.7,10.59c-28,29.21-55.74,23.33-69.57-14.67-24.16-66.37-39.15-135.45-60.17-202.75-14.25-45.63-31.47-89.57-57.25-130.45-61.29-97.18-167.89-67.33-217.42-5.13-23.93,30-40.2,64.37-50,101.23C1154.15,741,1126.19,826.71,1102,913.5c-17.34,62.27-32.4,125.21-51.51,186.94-25.11,81.1-55.66,160.37-84.22,240.3-2.91,8.14-5.56,21.24-16,19-11.15-2.41-9.12-15.84-9.13-25.38-.23-139.84,3-279.78-1.09-419.5-3.54-120.27-20.14-239.47-65.43-352.5-13.12-32.74-28.28-65.34-61.05-83.86-45.09-25.49-92.07-36.54-142.07-14-28.44,12.8-45.15,36.91-59.21,63.09C579.65,588.34,558.77,653.58,541,720c-33.63,125.7-55.78,253.61-74.14,382.27-1.53,10.72-1.1,26.12-14.47,26.18-11.57,0-12.11-15.11-14.23-25.07a2755.6,2755.6,0,0,0-77.6-287.27C347.82,777.37,331,739.46,295.47,716c-59.69-39.37-127.77-24.8-161.54,36.3-30.47,55.13-48.11,115.47-59.4,177.58-12.73,70-26.2,139.87-43.23,209-2.15,8.71-3.07,18.37-12.88,22.91-8.21-2.24-7.86-9-8.74-15.56-3.36-25.12-1.7-50.6-5.75-75.65v-149C8.2,892,7,862,11,832.45,22.92,745.67,50,663.25,86,583.87,139.55,466,213,361.66,306.88,272.57Q526.12,64.64,824.47,13c17.32-3,35-2.86,52.52-5.09C899.76,7.5,922.64,9.28,945.1,3.92Z"/><path class="cls-4" d="M1799,400.35c-37.95-43.88-75.4-88.19-118.41-127.4Q1486.31,95.83,1230.92,33.86c-37.51-9-75.72-13.72-113.36-21.69-4.64-7.17-17.1,4.18-19.52-8.25q445.1,0,890.2-.38c13.43,0,16.09,2.64,16.06,16.06q-.73,462.74-.38,925.49c-6,.62-5.3-3.77-5.9-7.52-3.4-21.05-2.83-42.44-5.57-63.55-5.47-51.1-17.12-100.92-31.23-150.23-1.94-6.79-3.21-13.78-4.79-20.68-12.08-33.57-30.9-64-44.44-97-25.08-61-58.65-117.4-96.53-171.22C1807.87,424.12,1809.11,409.6,1799,400.35Z"/><path class="cls-4" d="M1078.43,1996.08c23.35-8,48.12-6.7,72.07-11q602.33-109.38,805.33-686.77c24.68-70.42,36.92-143.92,42.82-218.38.46-5.79-2.94-13.46,5.27-17.13q0,458.82.38,917.65c0,13.43-2.63,16.09-16.06,16.06Q1533.33,1995.72,1078.43,1996.08Z"/><path class="cls-4" d="M3.92,1070.59c8.19,24.77,5.6,51.15,11.42,76.28,1,4.27-.57,9.32,3.73,12.62,8.26,4.34,8.19,12.83,9.6,20.27A964,964,0,0,0,103,1411.3c5.55,11.84.26,24.72,6.71,35.8,44.6,83.05,96.25,161.2,161.28,229.86q252.57,266.69,617.13,312.36c13.76,1.72,28.44-.75,41.31,6.76q-454.9,0-909.8.38c-13.43,0-16.09-2.63-16.06-16.06Q4.28,1525.49,3.92,1070.59Z"/><path class="cls-4" d="M874.59,12.18C799.8,24.37,725.48,38.64,654.43,66,340,187.13,136.91,411.11,40.24,732.72,22.73,791,13.14,851,7.74,911.56c-.32,3.61,1.08,8.07-3.82,10q0-450.49-.38-901c0-14.08,2.83-17.08,17-17.06q432.86.78,865.72.39C887.71,14.21,876.48,6.59,874.59,12.18Z"/><path class="cls-5" d="M1992.45,874c6.37,16.46,3.37,34.14,6.68,51,1.33,6.75-.37,14.24,4.79,20.08v98c-1.33-2.08-4-4.26-3.81-6.21,4.18-50.83-8.71-100.7-8.42-151.28C1991.71,881.77,1992.18,877.9,1992.45,874Z"/><path class="cls-6" d="M874.59,12.18l11.68-8.26H945.1C922.26,12.32,898.55,13.32,874.59,12.18Z"/><path class="cls-7" d="M1098,3.92c5.13,6,14.71,1.49,19.52,8.25-25.3,1.73-50.18-.45-74.42-8.25Z"/><path class="cls-8" d="M109.69,1447.09c-13.08-30.19-27.57-59.85-39-90.66C47.11,1292.54,25.37,1228,19.08,1159.48c8.48-39.77,17.25-79.47,25.38-119.31,10.29-50.44,18.48-101.36,30.49-151.38C87,838.59,101.14,788,128.78,744.16c40.26-63.83,97.34-69.53,158.35-44.72,26,10.56,43.83,35.06,57.79,60.26,27,48.74,39.1,102.87,54.66,155.58,17.76,60.16,32.77,121.12,45.59,182.59,2.1,10.08,1.43,21.16,9.6,31.53,6.74-45,12.43-88.75,20-132.2,25.34-146,51.63-291.78,109.32-429.52,6-14.34,13.63-28,20.23-42.11,31.47-67.19,93.54-97.48,172.41-72.92,40.57,12.63,71,36.12,90.67,74.57,30.12,58.79,45.23,122,58.33,186,26.41,129.07,23.79,259.8,23.37,390.46-.27,84.95-.05,169.89,2.24,255.6,16.19-45.3,31.35-91,48.75-135.81,46.17-118.92,73.45-243.44,109.56-365.34,20-67.67,39.08-135.64,59-203.36,11.24-38.3,26.91-74.64,51.69-106.39,55.18-70.7,173.1-98.84,239.15,16.23,34,59.2,51.52,123.82,69.68,188.38,13.89,49.37,27.91,98.67,44.48,147.19,7.06,20.66,21.27,24.33,39.52,11.46,16.37-11.54,27.44-27.81,37.92-44.42,28.36-44.95,46.26-94.44,64.12-144.18,21.82-60.8,43.21-121.64,58.63-184.43,9.36-38.1,17.3-76.56,29.84-113.85,2.81-8.35-1.17-16.59-4.66-24.36,20.21,23.49,36.36,49.79,53.1,75.74,40.71,63.13,69.78,132,99.55,200.5,3.6,8.29,6.6,17.08,4.81,26.53l-10.56-21.84c-7.28,18.41-13.89,35-20.39,51.57-47.1,120.36-101.23,237.24-171.61,346.06-17.15,26.52-39.13,48.84-62,70.27-44.64,41.78-162.55,50.43-206-28.11-26.46-47.82-44.57-98.36-62.06-149.49-11.64-34-25.25-67.16-45.36-97.15-14.67-21.86-24.82-22.17-38.32-.54-30.35,48.63-52.66,101.41-77,153.09-19.17,40.67-37.07,81.93-55.33,123-42.41,95.44-95.37,184.94-152.52,272.14-26.93,41.1-56,80.2-94.35,111.49-45.84,37.41-116.58,41.81-166.64,10.26-24.48-15.43-36.63-37.35-42.86-66.53-4.78-22.41-.56-42.27,1.33-63.29,8.51-94.35,12.61-188.84,9.95-283.61-1.94-69.19-8.07-138.37-8.2-207.39-.12-65.78-11.08-130-13.61-197.69-13,6.27-15.55,16.43-18.29,25.8-22.25,76.25-36.39,154.32-50.95,232.26-14.6,78.15-29.66,156.27-41.4,234.87-7.1,47.56-15.21,94.43-34.49,138.57-23.65,54.17-58.57,97.67-117.06,117.49-52.59,17.82-85.08-2.94-117.76-47.31-42.11-57.17-63.2-124.09-82.18-191.39-17.36-61.53-31.53-123.87-40-187.37-.39-2.91-2.62-5.58-5.7-11.83-17.58,95.46-36.9,186.81-68.61,274.76-14,38.74-32.61,75.8-49.12,113.62C112.18,1432,107.84,1438.75,109.69,1447.09Z"/></g></svg>