<?xml version="1.0" encoding="utf-8"?>
<!-- Generator: Adobe Illustrator 21.0.0, SVG Export Plug-In . SVG Version: 6.00 Build 0)  -->
<svg version="1.0" id="Layer_1" xmlns="http://www.w3.org/2000/svg" xmlns:xlink="http://www.w3.org/1999/xlink" x="0px" y="0px"
	 viewBox="0 0 2000 2000" style="enable-background:new 0 0 2000 2000;" xml:space="preserve">
<style type="text/css">
	.st0{clip-path:url(#SVGID_2_);}
	.st1{fill:#282E3F;}
	.st2{fill:#FEFEFE;}
	.st3{fill:#525764;}
	.st4{fill:#D2D4D7;}
	.st5{fill:#C9CACF;}
	.st6{fill:#F6F6F7;}
</style>
<g>
	<defs>
		<circle id="SVGID_1_" cx="1000.5" cy="1000.5" r="990.5"/>
	</defs>
	<clipPath id="SVGID_2_">
		<use xlink:href="#SVGID_1_"  style="overflow:visible;"/>
	</clipPath>
	<g class="st0">
		<g>
			<path class="st1" d="M1078.4,1996.1c-49.7,0-99.3,0-149,0c-30.8-4.4-62.2-2.6-92.9-7.2c-89-13.3-173.9-40.5-255.5-78.1
				c-123.1-56.7-230.4-135.3-321.8-235.2c-57.9-63.3-108-132.4-146.5-209.4c-3.2-6.4-6.7-12.7-8.3-19.8c-1.4-13.6,3.6-25.8,9.4-37.5
				c34-68.8,58.3-141.2,77.7-215.2c11.2-43,19.1-86.7,28.2-130.1c2-9.7,2.1-24,15.2-23.6c11.7,0.3,11.9,14.1,13.5,23.4
				c12,70.3,28,139.6,49.1,207.7c15.9,51.3,35.3,101.2,65.9,145.9c3.3,4.8,6.7,9.6,10.5,14.2c47.9,57.9,98.9,52.7,161.2-0.2
				c41.4-35.1,59.6-84.9,72.9-136.1c13.5-51.9,17.2-105.6,26.9-158.2c23-124.5,42.9-249.7,74.7-372.5c2.8-10.8,5.8-21.5,12.2-30.8
				c3.8-5.5,8.5-10.7,15.9-9.4c7.8,1.4,9.8,8.4,10.5,14.9c4.9,42.1,11.3,84.2,12.2,126.6c1.8,85.4,6.2,170.7,9.4,256
				c3.8,102.7-0.4,204.8-12.4,306.6c-4.3,36.4,0.3,70,24.5,95.5c28,29.5,66.7,37.3,106.8,32.2c32.1-4.1,58.6-19.2,82.4-41.5
				c46.9-44.1,78.7-98.9,113.1-152c75.7-116.8,129.3-244.7,186.7-370.7c17.9-39.2,35.9-78.5,58.6-115.3c18.4-29.8,39.7-30,58.5-0.5
				c19.7,31,33.7,64.8,45.4,99.7c16.3,48.9,33.1,97.3,59.8,142.3c24.2,40.7,73.6,60.1,125.3,54c54.9-6.4,89.5-42.3,118.1-83
				c61.4-87.4,108.2-183.2,149.8-281.5c14-33.1,27.9-66.2,40.1-100c1.6-4.3,3.2-8.6,5.5-12.6c9-16.1,15.6-16.3,25.8-0.8
				c1.8,2.7,3.6,5.4,4.9,8.5c14.3,49.1,29,98.2,34,149.4c0.8,8.4,0.7,16.8,1,25.2c0.5,55.5,3.6,111,5.9,166.5c0,6.5,0,13.1,0,19.6
				c-5.8,28.8-3.2,58.2-6.4,87.2c-7.9,71.9-28.5,140.6-54,207.8c-53.3,141-135.1,263.8-244.3,367
				c-148.5,140.3-323.3,230.5-525.9,263.7C1142,1993.6,1109.9,1991.6,1078.4,1996.1z"/>
			<path class="st1" d="M945.1,3.9c32.7,0,65.4,0,98,0c23.6,5,47.5,3.7,71.3,4c119,8.8,230.3,45.5,336.5,97.7
				c99.3,48.7,187.8,113.5,266.2,191.4c31.9,31.7,62,65.4,88,102.4c6.4,13.8,4.9,27.8,1.6,42.1c-26.7,114.6-60,227.3-103,336.9
				c-16.3,41.4-35.6,81.4-63.2,116.8c-2.8,3.6-5.5,7.3-8.7,10.6c-28,29.2-55.7,23.3-69.6-14.7c-24.2-66.4-39.1-135.4-60.2-202.7
				c-14.3-45.6-31.5-89.6-57.3-130.5c-61.3-97.2-167.9-67.3-217.4-5.1c-23.9,30-40.2,64.4-50,101.2
				c-23.2,87.1-51.2,172.8-75.4,259.6c-17.3,62.3-32.4,125.2-51.5,186.9c-25.1,81.1-55.7,160.4-84.2,240.3c-2.9,8.1-5.6,21.2-16,19
				c-11.2-2.4-9.1-15.8-9.1-25.4c-0.2-139.8,3-279.8-1.1-419.5c-3.5-120.3-20.1-239.5-65.4-352.5c-13.1-32.7-28.3-65.3-61.1-83.9
				c-45.1-25.5-92.1-36.5-142.1-14c-28.4,12.8-45.1,36.9-59.2,63.1c-32.7,60.8-53.5,126-71.3,192.4
				c-33.6,125.7-55.8,253.6-74.1,382.3c-1.5,10.7-1.1,26.1-14.5,26.2c-11.6,0-12.1-15.1-14.2-25.1c-20.7-97.1-46.5-193-77.6-287.3
				c-12.8-38.7-29.6-76.6-65.1-100.1c-59.7-39.4-127.8-24.8-161.5,36.3c-30.5,55.1-48.1,115.5-59.4,177.6
				c-12.7,70-26.2,139.9-43.2,209c-2.1,8.7-3.1,18.4-12.9,22.9c-8.2-2.2-7.9-9-8.7-15.6c-3.4-25.1-1.7-50.6-5.8-75.6
				c0-49.7,0-99.3,0-149C8.2,892,7,862,11,832.4C22.9,745.7,50,663.2,86,583.9C139.5,466,213,361.7,306.9,272.6
				C453,134,625.8,47.4,824.5,13c17.3-3,35-2.9,52.5-5.1C899.8,7.5,922.6,9.3,945.1,3.9z"/>
			<path class="st2" d="M1799,400.3c-37.9-43.9-75.4-88.2-118.4-127.4c-129.5-118.1-279.1-198-449.6-239.1
				c-37.5-9-75.7-13.7-113.4-21.7c-4.6-7.2-17.1,4.2-19.5-8.3c296.7,0,593.5,0.1,890.2-0.4c13.4,0,16.1,2.6,16.1,16.1
				c-0.5,308.5-0.4,617-0.4,925.5c-6,0.6-5.3-3.8-5.9-7.5c-3.4-21.1-2.8-42.4-5.6-63.5c-5.5-51.1-17.1-100.9-31.2-150.2
				c-1.9-6.8-3.2-13.8-4.8-20.7c-12.1-33.6-30.9-64-44.4-97c-25.1-61-58.7-117.4-96.5-171.2C1807.9,424.1,1809.1,409.6,1799,400.3z"
				/>
			<path class="st2" d="M1078.4,1996.1c23.3-8,48.1-6.7,72.1-11c401.6-72.9,670.4-301.7,805.3-686.8
				c24.7-70.4,36.9-143.9,42.8-218.4c0.5-5.8-2.9-13.5,5.3-17.1c0,305.9-0.1,611.8,0.4,917.6c0,13.4-2.6,16.1-16.1,16.1
				C1685,1996,1381.7,1996.1,1078.4,1996.1z"/>
			<path class="st2" d="M3.9,1070.6c8.2,24.8,5.6,51.2,11.4,76.3c1,4.3-0.6,9.3,3.7,12.6c8.3,4.3,8.2,12.8,9.6,20.3
				c15.1,80.3,39.6,157.6,74.3,231.6c5.5,11.8,0.3,24.7,6.7,35.8c44.6,83.1,96.2,161.2,161.3,229.9c168.4,177.8,374,282,617.1,312.4
				c13.8,1.7,28.4-0.8,41.3,6.8c-303.3,0-606.5-0.1-909.8,0.4c-13.4,0-16.1-2.6-16.1-16.1C4,1677.1,3.9,1373.9,3.9,1070.6z"/>
			<path class="st2" d="M874.6,12.2C799.8,24.4,725.5,38.6,654.4,66C340,187.1,136.9,411.1,40.2,732.7C22.7,791,13.1,851,7.7,911.6
				c-0.3,3.6,1.1,8.1-3.8,10c0-300.3,0.1-600.7-0.4-901c0-14.1,2.8-17.1,17-17.1c288.6,0.5,577.1,0.4,865.7,0.4
				C887.7,14.2,876.5,6.6,874.6,12.2z"/>
			<path class="st3" d="M1992.4,874c6.4,16.5,3.4,34.1,6.7,51c1.3,6.8-0.4,14.2,4.8,20.1c0,32.7,0,65.4,0,98c-1.3-2.1-4-4.3-3.8-6.2
				c4.2-50.8-8.7-100.7-8.4-151.3C1991.7,881.8,1992.2,877.9,1992.4,874z"/>
			<path class="st4" d="M874.6,12.2c3.9-2.8,7.8-5.5,11.7-8.3c19.6,0,39.2,0,58.8,0C922.3,12.3,898.6,13.3,874.6,12.2z"/>
			<path class="st5" d="M1098,3.9c5.1,6,14.7,1.5,19.5,8.3c-25.3,1.7-50.2-0.4-74.4-8.3C1061.4,3.9,1079.7,3.9,1098,3.9z"/>
			<path class="st6" d="M109.7,1447.1c-13.1-30.2-27.6-59.9-39-90.7c-23.6-63.9-45.4-128.4-51.7-196.9
				c8.5-39.8,17.3-79.5,25.4-119.3c10.3-50.4,18.5-101.4,30.5-151.4C87,838.6,101.1,788,128.8,744.2c40.3-63.8,97.3-69.5,158.3-44.7
				c26,10.6,43.8,35.1,57.8,60.3c27,48.7,39.1,102.9,54.7,155.6c17.8,60.2,32.8,121.1,45.6,182.6c2.1,10.1,1.4,21.2,9.6,31.5
				c6.7-45,12.4-88.8,20-132.2c25.3-146,51.6-291.8,109.3-429.5c6-14.3,13.6-28,20.2-42.1c31.5-67.2,93.5-97.5,172.4-72.9
				c40.6,12.6,71,36.1,90.7,74.6c30.1,58.8,45.2,122,58.3,186c26.4,129.1,23.8,259.8,23.4,390.5c-0.3,84.9-0.1,169.9,2.2,255.6
				c16.2-45.3,31.3-91,48.8-135.8c46.2-118.9,73.4-243.4,109.6-365.3c20-67.7,39.1-135.6,59-203.4c11.2-38.3,26.9-74.6,51.7-106.4
				c55.2-70.7,173.1-98.8,239.2,16.2c34,59.2,51.5,123.8,69.7,188.4c13.9,49.4,27.9,98.7,44.5,147.2c7.1,20.7,21.3,24.3,39.5,11.5
				c16.4-11.5,27.4-27.8,37.9-44.4c28.4-44.9,46.3-94.4,64.1-144.2c21.8-60.8,43.2-121.6,58.6-184.4c9.4-38.1,17.3-76.6,29.8-113.9
				c2.8-8.3-1.2-16.6-4.7-24.4c20.2,23.5,36.4,49.8,53.1,75.7c40.7,63.1,69.8,132,99.6,200.5c3.6,8.3,6.6,17.1,4.8,26.5
				c-3.1-6.4-6.2-12.8-10.6-21.8c-7.3,18.4-13.9,35-20.4,51.6c-47.1,120.4-101.2,237.2-171.6,346.1c-17.2,26.5-39.1,48.8-62,70.3
				c-44.6,41.8-162.5,50.4-206-28.1c-26.5-47.8-44.6-98.4-62.1-149.5c-11.6-34-25.2-67.2-45.4-97.1c-14.7-21.9-24.8-22.2-38.3-0.5
				c-30.3,48.6-52.7,101.4-77,153.1c-19.2,40.7-37.1,81.9-55.3,123c-42.4,95.4-95.4,184.9-152.5,272.1
				c-26.9,41.1-56,80.2-94.3,111.5c-45.8,37.4-116.6,41.8-166.6,10.3c-24.5-15.4-36.6-37.4-42.9-66.5c-4.8-22.4-0.6-42.3,1.3-63.3
				c8.5-94.4,12.6-188.8,9.9-283.6c-1.9-69.2-8.1-138.4-8.2-207.4c-0.1-65.8-11.1-130-13.6-197.7c-13,6.3-15.6,16.4-18.3,25.8
				c-22.2,76.3-36.4,154.3-50.9,232.3c-14.6,78.1-29.7,156.3-41.4,234.9c-7.1,47.6-15.2,94.4-34.5,138.6
				c-23.7,54.2-58.6,97.7-117.1,117.5c-52.6,17.8-85.1-2.9-117.8-47.3c-42.1-57.2-63.2-124.1-82.2-191.4
				c-17.4-61.5-31.5-123.9-40-187.4c-0.4-2.9-2.6-5.6-5.7-11.8c-17.6,95.5-36.9,186.8-68.6,274.8c-14,38.7-32.6,75.8-49.1,113.6
				C112.2,1432,107.8,1438.7,109.7,1447.1z"/>
		</g>
	</g>
</g>
</svg>
